<?xml version="1.0" encoding="utf-8"?>
<!-- Generator: Adobe Illustrator 25.3.1, SVG Export Plug-In . SVG Version: 6.00 Build 0)  -->
<svg version="1.1" id="Layer_1" xmlns="http://www.w3.org/2000/svg" xmlns:xlink="http://www.w3.org/1999/xlink" x="0px" y="0px"
	 viewBox="0 0 612 792" style="enable-background:new 0 0 612 792;" xml:space="preserve">
<path d="M333.76,367.17c-0.01,0-0.02,0-0.03,0c0,34.31-0.06,68.63,0.08,102.94c0.02,4.1,0.55,8.39,1.83,12.25
	c5.27,15.85,21.3,25.25,37.81,22.59c16.64-2.69,28.65-16.35,28.84-33.32c0.2-17.82,0.02-35.65,0.02-53.47
	c0.01-50.97,0.01-101.94,0.06-152.91c0.01-12.33-4.43-22.55-14.56-29.69c-11.14-7.85-23.28-8.84-35.45-2.66
	c-12.23,6.21-18.43,16.76-18.52,30.33C333.6,297.87,333.76,332.52,333.76,367.17z M298.82,441.12c0.01,0,0.01,0,0.02,0
	c0-31.31,0.12-62.62-0.04-93.92c-0.11-20.55-18.07-35.79-38.42-32.95c-17.58,2.45-29.69,16.1-29.71,33.92
	c-0.06,61.95-0.01,123.9,0.02,185.85c0,1.83,0.07,3.67,0.35,5.47c2.73,17.39,18.55,29.57,36.68,28.28
	c17.16-1.22,31.02-15.88,31.08-33.23C298.9,503.4,298.82,472.26,298.82,441.12z M130.56,541.1c1.11-0.15,1.49-0.09,1.72-0.25
	c20.72-13.94,41.45-27.86,62.06-41.97c1.31-0.89,2.27-3.24,2.29-4.92c0.18-16.82,0.17-33.64,0.11-50.47
	c-0.02-6.87-2.15-13.1-6.43-18.52c-8.95-11.31-23.97-15.68-37.78-11.02c-13.13,4.43-21.92,16.82-21.97,31.41
	c-0.08,21.82-0.01,43.64,0,65.46C130.56,520.81,130.56,530.79,130.56,541.1z M427.1,384.28c0.14,15.93,12.9,28.46,28.82,28.31
	c15.63-0.15,28.11-12.82,28.09-28.53c-0.03-16.21-12.74-28.66-29.09-28.49C439.34,355.73,426.96,368.5,427.1,384.28z"/>
</svg>
